# xmcd
#
# Track frame offsets: 
#        150
#        12596
#        26466
#        41112
#        54267
#        71492
#        82754
#        104935
#        116634
#        133857
#        145805
#        161140
#        173021
#        186374
#        201396
#        213193
#        223292
#        234093
#        244609
#        256444
#        269031
#        297955
#        309142
#        320645
#        336371
#
# Disc length: 4661 seconds
#
# Revision: 1
# Processed by: cddbd v1.5.2PL0 Copyright (c) Steve Scherf et al.
# Submitted via: ExactAudioCopyFreeDBPlugin 1.0
#
DISCID=82123319
DTITLE=Wilson Pickett - Funky Midnight Mover:  The Atlantic Studio Rec
DTITLE=ordings, 1962 - 1978 [box set]
DYEAR=2009
DGENRE=Soul
TTITLE0=Born to Be Wild (ft Duane Allman)
TTITLE1=Hey Joe
TTITLE2=She Said Yes
TTITLE3=Sweet Inspiration
TTITLE4=Steal Away
TTITLE5=Funky Way
TTITLE6=You Keep Me Hanging On
TTITLE7=Now You See Me, Now You Don't
TTITLE8=Cole, Cooke and Redding
TTITLE9=Groovy Little Woman
TTITLE10=This Old Town
TTITLE11=It's Still Good
TTITLE12=Sugar Sugar
TTITLE13=Lord Pity Us All
TTITLE14=Run Joey Run
TTITLE15=Bumple Bee (Sting Me)
TTITLE16=Days Go By
TTITLE17=Ain't No Doubt About It
TTITLE18=Come Right Here
TTITLE19=Don't Let the Green Grass Fool You
TTITLE20=Get Me Back On Time, Engine Number 9 (Parts I and II)
TTITLE21=International Playboy
TTITLE22=Help the Needy
TTITLE23=Fire and Water
TTITLE24=(Your Love Has Brought Me) A Mighty Long Way
EXTD=
EXTT0=
EXTT1=
EXTT2=
EXTT3=
EXTT4=
EXTT5=
EXTT6=
EXTT7=
EXTT8=
EXTT9=
EXTT10=
EXTT11=
EXTT12=
EXTT13=
EXTT14=
EXTT15=
EXTT16=
EXTT17=
EXTT18=
EXTT19=
EXTT20=
EXTT21=
EXTT22=
EXTT23=
EXTT24=
PLAYORDER=
